<!--<svg version="1.1" id="Capa_1" xmlns="http://www.w3.org/2000/svg" xmlns:xlink="http://www.w3.org/1999/xlink" x="0px" y="0px"
	 width="512px" height="512px" viewBox="0 0 512 512" style="enable-background:new 0 0 512 512;" xml:space="preserve">
<g>
	<path d="M256,0C114.609,0,0,114.609,0,256c0,141.391,114.609,256,256,256c141.391,0,256-114.609,256-256
		C512,114.609,397.391,0,256,0z M256,472c-119.297,0-216-96.703-216-216S136.703,40,256,40s216,96.703,216,216S375.297,472,256,472z
		"/>
	<path d="M316.75,216.812h-44.531v-32.5c0-9.969,10.312-12.281,15.125-12.281c4.781,0,28.767,0,28.767,0v-43.859L283.141,128
		c-44.983,0-55.25,32.703-55.25,53.672v35.141H195.25V262h32.641c0,58.016,0,122,0,122h44.328c0,0,0-64.641,0-122h37.656
		L316.75,216.812z"/>
</g>
</svg>-->
<svg version="1.1" id="Capa_1" xmlns="http://www.w3.org/2000/svg" xmlns:xlink="http://www.w3.org/1999/xlink" x="0px" y="0px"
	 width="512px" height="512px" viewBox="0 0 512 512" style="enable-background:new 0 0 512 512;" xml:space="preserve">
<g>
	<path fill="#2D7896" d="M426.672,0H85.342C38.406,0,0,38.407,0,85.344v341.313C0,473.626,38.406,512,85.342,512l341.33-0.001
		c46.938,0,85.328-38.373,85.328-85.344V85.344C512,38.407,473.609,0,426.672,0z M435.297,256H352v224h-96V256h-46.263v-73.282H256
		v-47.593C256,70.454,283.896,32,359.936,32h87.621v79.285h-71.564c-21.24-0.035-23.875,11.076-23.875,31.756L352,182.718h96
		L435.297,256z"/>
</g>
</svg>