<!--<svg version="1.1" id="Capa_1" xmlns="http://www.w3.org/2000/svg" xmlns:xlink="http://www.w3.org/1999/xlink" x="0px" y="0px"
	 width="512px" height="512px" viewBox="0 0 512 512" style="enable-background:new 0 0 512 512;" xml:space="preserve">
<g>
	<path d="M256,0C114.615,0,0,114.615,0,256s114.615,256,256,256s256-114.615,256-256S397.385,0,256,0z M408.027,408.027
		c-19.76,19.759-42.756,35.267-68.354,46.094c-6.502,2.75-13.105,5.164-19.801,7.246V423c0-20.167-6.916-35-20.75-44.5
		c8.668-0.833,16.625-2,23.875-3.5s14.918-3.667,23-6.5c8.084-2.833,15.334-6.208,21.75-10.125c6.418-3.917,12.584-9,18.5-15.25
		c5.918-6.25,10.875-13.333,14.875-21.25s7.168-17.417,9.5-28.5c2.334-11.083,3.5-23.292,3.5-36.625c0-25.833-8.416-47.833-25.25-66
		c7.668-20,6.834-41.75-2.5-65.25l-6.25-0.75c-4.332-0.5-12.125,1.333-23.375,5.5s-23.875,11-37.875,20.5
		c-19.832-5.5-40.416-8.25-61.749-8.25c-21.5,0-42,2.75-61.5,8.25c-8.833-6-17.208-10.958-25.125-14.875s-14.25-6.583-19-8
		s-9.167-2.292-13.25-2.625s-6.708-0.417-7.875-0.25s-2,0.333-2.5,0.5c-9.333,23.667-10.167,45.417-2.5,65.25
		c-16.833,18.167-25.25,40.167-25.25,66c0,13.333,1.167,25.542,3.5,36.625s5.5,20.583,9.5,28.5s8.958,15,14.875,21.25
		s12.083,11.333,18.5,15.25s13.667,7.292,21.75,10.125s15.75,5,23,6.5s15.208,2.667,23.875,3.5c-13.667,9.333-20.5,24.167-20.5,44.5
		v39.115c-7.549-2.247-14.99-4.902-22.3-7.994c-25.597-10.827-48.594-26.335-68.353-46.094
		c-19.758-19.758-35.267-42.756-46.093-68.354C46.679,313.195,41,285.043,41,256s5.679-57.195,16.879-83.675
		c10.827-25.597,26.335-48.594,46.093-68.353c19.758-19.759,42.756-35.267,68.353-46.093C198.805,46.679,226.957,41,256,41
		s57.195,5.679,83.676,16.879c25.598,10.827,48.594,26.335,68.354,46.093c19.758,19.758,35.266,42.756,46.092,68.353
		C465.32,198.805,471,226.957,471,256s-5.68,57.195-16.879,83.675C443.295,365.271,427.785,388.27,408.027,408.027z"/>
</g>
</svg>-->
<svg viewBox="0 0 512 512" width="512px" height="512px" x="0px" y="0px" xmlns="http://www.w3.org/2000/svg" style="enable-background:new 0 0 512 512;" xml:space="preserve">
<rect fill="#2D7896" height="512" rx="15%" width="512"/>
<path fill="#44A2C0" d="m119 255c17 30 49 48 102 53-8 6-17 17-18 30-10 6-29 8-44 3-21-7-29-48-61-42-7 1-6 6 0 10 10 6 21 16 26 30 12 31 37 39 77 33v45c0 14-20 18-20 25 0 3 7 3 12 3 10 0 32-9 32-23 0-12 0-52 1-59 0-15 8-20 8-20s1 82-2 92c-4 13-10 11-10 17 0 9 26 2 35-17 7-15 4-95 3-94h7s0 37 1 53c0 17-1 39 9 50 7 7 29 19 29 8 0-6-12-12-12-29v-79c10 0 8 26 8 26l1 48s-2 18 19 25c8 3 24 3 25-1s-20-11-20-25v-49c0-36-5-49-22-60 53-5 86-18 102-53 10-20 12-44 12-62 0-50-24-67-29-76 7-38-1-55-5-60-14-5-48 12-66 24-30-9-94-8-118 2-44-31-67-26-67-26s-15 27-4 66c-15 18-25 31-26 65 0 27 3 44 15 67z"/>
</svg>
