<?xml version="1.0" encoding="UTF-8" standalone="no"?>
<!--<svg version="1.1" xmlns="http://www.w3.org/2000/svg" xmlns:xlink="http://www.w3.org/1999/xlink" x="0px" y="0px" viewBox="0 0 1000 1000" width="1000px" height="1000px" enable-background="new 0 0 1000 1000" xml:space="preserve">
<g><path d="M453,361.2c5.4,20.4,5.1,39.8-1,58.2c-6.1,18.4-16.7,29.6-31.6,33.7h-10.2c-28.6,0-49-20.4-61.3-61.3c-4.1-20.4-3.4-38.8,2-55.1c6.8-16.3,17-26.5,30.6-30.6c1.4-1.4,4.8-2,10.2-2C421.7,304,442.2,323.1,453,361.2L453,361.2 M500,10c136.1,0,251.8,47.6,347.1,142.9C942.4,248.2,990,363.9,990,500c0,134.7-47.6,250.1-142.9,346.1C751.8,942,636.1,990,500,990c-134.8,0-250.1-48-346.1-143.9C58,750.1,10,634.8,10,500c0-136.1,48-251.8,143.9-347.1C249.9,57.6,365.3,10,500,10L500,10 M471.4,710.3c40.8-20.4,61.2-53.8,61.2-100c0-29.9-17.7-61.3-53.1-93.9c-17.7-15-26.5-25.9-26.5-32.7c0-8.2,6.8-17,20.4-26.5c23.1-23.1,34.7-50.4,34.7-81.7c0-39.5-12.3-66-36.8-79.6c1.4-1.4,4.8-2.4,10.2-3.1c5.4-0.7,8.8-1,10.2-1c27.2-2.7,40.8-8.2,40.8-16.3v-4.1H414.3c-8.2,0-19.4,1.4-33.7,4.1c-14.3,2.7-32.3,13.6-54.1,32.7c-21.8,19.1-32.7,44.9-32.7,77.6c0,38.1,12.9,65.3,38.8,81.7c15,10.9,34,16.3,57.2,16.3h6.1c-2.7,16.3,2.7,33.3,16.3,51h-2c-93.9,0-140.9,32-140.9,96c0,27.2,9.5,48.7,28.6,64.3s35.7,24.8,50,27.6c14.3,2.7,27.6,4.1,39.8,4.1h4.1h4.1C423.1,726.6,448.3,721.2,471.4,710.3L471.4,710.3 M730.7,498v-49h-77.6v-77.6h-49V449h-77.6v49h77.6v77.6h49V498H730.7L730.7,498 M410.2,557.2c21.8,0,39.5,5.8,53.1,17.4c13.6,11.6,21.1,26.2,22.5,43.9c1.4,17.7-5.1,32.7-19.4,44.9c-14.3,12.3-33,19.1-56.1,20.4c-23.1,2.7-43.6-1-61.3-11.2c-17.7-10.2-27.2-24.2-28.6-41.9c0-17.7,7.5-34,22.5-49c13.6-13.6,33.3-21.8,59.2-24.5H410.2L410.2,557.2"/></g>
</svg>-->

<svg
   xmlns:dc="http://purl.org/dc/elements/1.1/"
   xmlns:cc="http://creativecommons.org/ns#"
   xmlns:rdf="http://www.w3.org/1999/02/22-rdf-syntax-ns#"
   xmlns:svg="http://www.w3.org/2000/svg"
   xmlns="http://www.w3.org/2000/svg"
   xmlns:sodipodi="http://sodipodi.sourceforge.net/DTD/sodipodi-0.dtd"
   xmlns:inkscape="http://www.inkscape.org/namespaces/inkscape"
   version="1.1"
   x="0px"
   y="0px"
   width="512px"
   height="512px"
   viewBox="0 0 512 512"
   enable-background="new 0 0 512 512"
   xml:space="preserve"
   id="svg2"
   inkscape:version="0.91 r13725"
   sodipodi:docname="gplus-logo.svg"><metadata
     id="metadata9"><rdf:RDF><cc:Work
         rdf:about=""><dc:format>image/svg+xml</dc:format><dc:type
           rdf:resource="http://purl.org/dc/dcmitype/StillImage" /><dc:title></dc:title></cc:Work></rdf:RDF></metadata><defs
     id="defs7" /><sodipodi:namedview
     pagecolor="#ffffff"
     bordercolor="#666666"
     borderopacity="1"
     objecttolerance="10"
     gridtolerance="10"
     guidetolerance="10"
     inkscape:pageopacity="0"
     inkscape:pageshadow="2"
     inkscape:window-width="1280"
     inkscape:window-height="683"
     id="namedview5"
     showgrid="false"
     inkscape:zoom="0.65186406"
     inkscape:cx="206.43651"
     inkscape:cy="311.28235"
     inkscape:window-x="0"
     inkscape:window-y="639"
     inkscape:window-maximized="1"
     inkscape:current-layer="svg2" /><path
     fill="#2D7896"
     id="google-plus-square-rounded-icon"
     d="m 200.33206,228.96632 c -27.58045,-0.83087 -53.78807,-26.1286 -58.54983,-62.34369 -4.763,-36.22374 13.73097,-63.93753 41.30649,-63.11654 27.56688,0.8284 51.15965,30.53974 55.91895,66.7536 4.75682,36.22004 -11.10996,59.52639 -38.67561,58.70663 z m -5.65806,74.11539 c -41.08551,-0.45186 -75.90306,25.96193 -75.90306,56.57945 0,31.24593 29.6706,57.25353 70.75857,57.25353 52.52757,0 77.90431,-24.4113 77.90431,-55.65722 0,-29.78542 -27.17182,-58.17576 -72.75982,-58.17576 z m 317.89505,-240.374701 0,385.188171 c 0,34.09162 -27.63725,61.72887 -61.72887,61.72887 l -385.188171,0 c -34.091623,0 -61.7288741,-27.63725 -61.7288741,-61.72887 l 0,-385.188171 c 0,-34.091623 27.6372511,-61.7288741 61.7288741,-61.7288741 l 385.188171,0 c 34.09286,0 61.72887,27.6372511 61.72887,61.7288741 z M 302.82545,357.62534 c 0,-28.84466 -10.77045,-47.69173 -43.35713,-72.10673 -33.05087,-24.10389 -41.12748,-37.72251 -9.58155,-62.11159 17.77545,-13.74455 30.23233,-32.06568 30.23233,-54.68561 0,-24.64341 -10.07662,-47.0016 -29.02491,-57.85724 l 26.85823,0 22.86561,-23.997715 c 0,0 -86.1945,0 -102.32055,0 -63.87209,0 -95.19209,38.284255 -95.19209,80.398155 0,43.03861 29.52492,76.93393 87.17969,76.93393 -8.93835,18.04582 -5.34819,34.71262 9.27661,46.63122 -98.46866,0 -119.539199,43.20774 -119.539199,76.49072 0,43.12626 49.573219,68.76473 109.016899,68.76473 81.2784,0 113.58606,-43.07564 113.58606,-78.45987 z m 133.44795,-218.83626 -47.20531,0 0,-47.20407 -23.60141,0 0,47.20407 -47.20407,0 0,23.60141 47.20407,0 0,47.20408 23.60141,0 0,-47.20408 47.20407,0 0,-23.60141 z"
     inkscape:connector-curvature="0" /></svg>